<svg xmlns="http://www.w3.org/2000/svg" height="31" viewBox="0 0 150 31" width="150"><path d="m142.056 11.922v4.584h7.872v-7.558zm0 18.042 7.872-2.974v-4.56l-7.848-.024zm-94.128-3.316v-10.727c0-2.95-1.056-5.096-3.192-6.34-1.44-.877-3.336-1.267-5.976-1.267h-.024c-6.576 0-9.072 3.779-9.216 7.022v.122h5.832v-.098c.168-1.731 1.368-2.658 3.48-2.658.984 0 1.728.22 2.232.683.48.415.696 1 .696 1.731 0 1.414-1.248 2.024-5.088 2.56-4.92.61-8.184 1.926-8.184 6.461 0 2 .696 3.657 2.04 4.803 1.272 1.073 3.024 1.634 5.112 1.634 2.808 0 4.68-.902 6.216-3 .12 1.05.36 1.927.696 2.415l.024.048h6.096v-.536l-.048-.024c-.48-.342-.696-1.195-.696-2.829zm-5.976-4.242c0 2.292-1.8 3.901-4.368 3.901-1.08 0-2.904-.317-2.904-2.365 0-1.78 1.296-2.39 3.864-2.95 1.176-.268 2.496-.585 3.432-1.097zm18.816-14.092c-6.168 0-10.632 4.681-10.632 11.118 0 3.096 1.032 5.9 2.928 7.899 1.992 2.097 4.752 3.194 7.992 3.194 4.872 0 8.616-2.511 9.768-6.559l.048-.146h-6.072l-.024.049c-.672 1.317-1.896 1.975-3.648 1.975-2.736 0-4.416-1.658-4.848-4.779h14.928v-.122c.048-4.34-1.104-7.777-3.336-9.972-1.896-1.73-4.296-2.633-7.104-2.657zm-4.416 8.996c.432-2.925 1.92-4.437 4.416-4.437 2.304 0 3.864 1.707 4.08 4.437zm71.904-8.923c-2.736 0-4.92 1.317-6.528 3.901-1.08-2.584-2.976-3.901-5.664-3.901-2.76 0-4.776 1.22-6.168 3.73v-3.145h-6.024l-.024 20.992v.025h6.264v-11.971c0-2.634 1.392-4.389 3.432-4.389.936 0 1.656.317 2.136.902.504.61.744 1.487.744 2.609v12.824h6.264v-11.97c0-1.293.312-2.39.912-3.17s1.464-1.195 2.472-1.195c1.872 0 2.928 1.292 2.928 3.535v12.826h6.216v-13.825c.024-4.877-2.592-7.778-6.96-7.778zm-54.768-5.754v.025l-.024 27.257v.025l6.288.024h.024v-29.671h-.048zm-53.52 17.798c-.624 2.707-2.808 4.389-5.712 4.389-4.32 0-7.224-3.804-7.224-9.46 0-5.925 2.688-9.484 7.176-9.484 2.544 0 4.536 1.292 5.328 3.413l6.216-2.365a10.834 10.834 0 0 0 -3.576-4.559c-1.992-1.512-4.728-2.292-7.92-2.292h-.024c-2.04 0-3.96.366-5.712 1.122a13.196 13.196 0 0 0 -4.488 3.145c-1.272 1.365-2.256 2.999-2.928 4.827-.696 1.903-1.056 3.974-1.056 6.193 0 4.267 1.392 8.143 3.912 10.898 2.568 2.804 6.192 4.34 10.248 4.34h.024c3.936 0 6.912-1.073 9.168-3.316a12.13 12.13 0 0 0 3.432-6.802v-.024zm75.384-11.483v11.872c0 1.268-.36 2.34-1.032 3.121-.696.805-1.656 1.22-2.784 1.22-2.04 0-3.168-1.244-3.168-3.536v-12.702h-6.264v13.873c0 2.316.648 4.267 1.872 5.608 1.272 1.39 3.144 2.145 5.424 2.145 2.736 0 4.632-1.072 6.168-3.462v2.877h5.952l.024-20.992v-.024z" fill="#fbf300"/></svg>